<svg xmlns:xlink="http://www.w3.org/1999/xlink" xmlns="http://www.w3.org/2000/svg" class="css-ze2te4 css-qd6ojx" viewBox="0 0 83.33333333333333 162.42797861074763" width="83.33333333333333"  height="162.42797861074763" ><g transform="translate(-55.63372178944064, -14.36042448268565) scale(1.901287506084404)" class="css-1lxjeq" fill="currentColor"><g xmlns="http://www.w3.org/2000/svg" fill="currentColor"><path fill="currentColor" d="M62.912,24.112V35.79l-3.929,3.929v-22.28h-2.7v24.98l-3.758,3.758V7.553h-2.7v38.623l-3.757-3.758v-24.98   h-2.7v22.28l-3.929-3.929V24.112h-2.7v30.843h0.033l-0.033,0.033l13.086,13.086v12.33h2.7v-12.33l13.087-13.086l-0.033-0.033h0.033   V24.112H62.912z M49.825,49.995v5.22L39.439,44.828v-5.221L49.825,49.995z M39.439,53.871v-5.225l10.386,10.387v5.223   L39.439,53.871z M62.912,53.871L52.525,64.256v-5.223l10.387-10.387V53.871z M62.912,44.828L52.525,55.215v-5.22l10.387-10.388   V44.828z"></path><g fill="currentColor"><g fill="currentColor"><rect x="70.22" y="40.775" fill="currentColor" width="2.7" height="30.844"></rect></g><g fill="currentColor"><rect x="59.883" y="65.705" transform="matrix(0.7071 0.7071 -0.7071 0.7071 75.2993 -19.5366)" fill="currentColor" width="2.699" height="30.842"></rect></g><g fill="currentColor"><rect x="29.432" y="40.72" fill="currentColor" width="2.699" height="30.842"></rect></g><g fill="currentColor"><rect x="25.698" y="79.776" transform="matrix(0.7071 0.7071 -0.7071 0.7071 69.4081 -5.314)" fill="currentColor" width="30.842" height="2.699"></rect></g></g></g></g></svg>