<svg xmlns:xlink="http://www.w3.org/1999/xlink" xmlns="http://www.w3.org/2000/svg" viewBox="0 0 389.66666666666663 182.42797861074763" preserveAspectRatio="xMidYMid meet" class="css-98pqax" id="gbebhbbe" width="389.66666666666663"  height="182.42797861074763" ><defs id="SvgjsDefs1011"></defs><g id="SvgjsG1012" featurekey="v37d4h-0" transform="matrix(1.901287506084404,0,0,1.901287506084404,-35.63372178944064,5.63957551731435)" fill="#000000"><g xmlns="http://www.w3.org/2000/svg" fill="#000000"><path fill="#000000" d="M62.912,24.112V35.79l-3.929,3.929v-22.28h-2.7v24.98l-3.758,3.758V7.553h-2.7v38.623l-3.757-3.758v-24.98   h-2.7v22.28l-3.929-3.929V24.112h-2.7v30.843h0.033l-0.033,0.033l13.086,13.086v12.33h2.7v-12.33l13.087-13.086l-0.033-0.033h0.033   V24.112H62.912z M49.825,49.995v5.22L39.439,44.828v-5.221L49.825,49.995z M39.439,53.871v-5.225l10.386,10.387v5.223   L39.439,53.871z M62.912,53.871L52.525,64.256v-5.223l10.387-10.387V53.871z M62.912,44.828L52.525,55.215v-5.22l10.387-10.388   V44.828z"></path><g fill="#000000"><g fill="#000000"><rect x="70.22" y="40.775" fill="#000000" width="2.7" height="30.844"></rect></g><g fill="#000000"><rect x="59.883" y="65.705" transform="matrix(0.7071 0.7071 -0.7071 0.7071 75.2993 -19.5366)" fill="#000000" width="2.699" height="30.842"></rect></g><g fill="#000000"><rect x="29.432" y="40.72" fill="#000000" width="2.699" height="30.842"></rect></g><g fill="#000000"><rect x="25.698" y="79.776" transform="matrix(0.7071 0.7071 -0.7071 0.7071 69.4081 -5.314)" fill="#000000" width="30.842" height="2.699"></rect></g></g></g></g><g id="SvgjsG1013" featurekey="UxBHKT-0" transform="matrix(3.1196382779035954,0,0,3.1196382779035954,120.31711122232106,56.58727151309966)" fill="#000000"><path d="M9.72 18.9 q-0.38 0.52 -1.31 0.93 t-2.03 0.41 q-1.7 0 -2.95 -0.76 t-1.91 -2.07 t-0.66 -2.91 t0.66 -2.91 t1.91 -2.07 t2.95 -0.76 q1.14 0 2.01 0.39 t1.33 0.99 l0 -5.26 l2.96 0 l0 15.12 l-2.96 0 l0 -1.1 z M9.02 12.25 q-0.82 -0.87 -2.2 -0.87 q-1.4 0 -2.21 0.87 t-0.81 2.25 q0 1.34 0.83 2.22 t2.19 0.88 q1.4 0 2.21 -0.83 t0.81 -2.27 q0 -1.38 -0.82 -2.25 z M23.98 18.9 q-0.38 0.52 -1.31 0.93 t-2.03 0.41 q-1.7 0 -2.95 -0.76 t-1.91 -2.07 t-0.66 -2.91 t0.66 -2.91 t1.91 -2.07 t2.95 -0.76 q1.14 0 2.01 0.39 t1.33 0.99 l0 -1.14 l2.96 0 l0 11 l-2.96 0 l0 -1.1 z M23.28 12.25 q-0.82 -0.87 -2.2 -0.87 q-1.4 0 -2.21 0.87 t-0.81 2.25 q0 1.34 0.83 2.22 t2.19 0.88 q1.4 0 2.21 -0.83 t0.81 -2.27 q0 -1.38 -0.82 -2.25 z M31.52 24.12 l1.9 -4.52 l-4.72 -10.56 l3.46 0 l2.78 7 l2.56 -7 l3.46 0 l-6.14 15.08 l-3.3 0 z M42.779999999999994 4.880000000000001 l3 0 l0 15.12 l-3 0 l0 -15.12 z M49.94 24.12 l1.9 -4.52 l-4.72 -10.56 l3.46 0 l2.78 7 l2.56 -7 l3.46 0 l-6.14 15.08 l-3.3 0 z M64.88 16.08 q0 0.7 0.24 1.17 t1.12 0.47 q0.4 0 0.76 -0.04 l0 2.52 q-0.72 0.08 -1.34 0.08 q-1.28 0 -2.07 -0.21 t-1.23 -0.81 t-0.44 -1.72 l0 -6.1 l-1.34 0 l0 -2.62 l1.34 0 l0 -2.94 l2.96 0 l0 2.94 l2.2 0 l0 2.62 l-2.2 0 l0 4.64 z M72.18 7.369999999999999 q-0.48 0.47 -1.16 0.47 q-0.7 0 -1.19 -0.47 t-0.49 -1.15 q0 -0.66 0.49 -1.13 t1.19 -0.47 q0.68 0 1.16 0.47 t0.48 1.13 q0 0.68 -0.48 1.15 z M69.52 9.02 l3 0 l0 10.98 l-3 0 l0 -10.98 z M77.96 19.51 q-1.38 -0.77 -2.19 -2.09 t-0.81 -2.88 t0.81 -2.87 t2.18 -2.08 t2.99 -0.77 q1.74 0 3.15 0.83 t2.25 2.37 l-2.7 1.06 q-0.48 -0.82 -1.18 -1.23 t-1.52 -0.41 q-1.3 0 -2.15 0.88 t-0.85 2.22 t0.86 2.22 t2.16 0.88 q1.8 0 2.78 -1.6 l2.54 1 q-1.58 3.24 -5.32 3.24 q-1.62 0 -3 -0.77 z" fill="#000000"></path></g></svg>